<svg xmlns="http://www.w3.org/2000/svg" width="500" height="500"><style>.st0{fill:#fff}</style><path d="M429.1 500H70.9C31.8 500 0 468.2 0 429.1V70.9C0 31.8 31.8 0 70.9 0H429c39.2 0 71 31.8 71 70.9V429c0 39.2-31.8 71-70.9 71z"/><path class="st0" d="M167.1 210.8h169.2c5.1 0 7-3.2 7.6-4.5s1.9-4.8-1.4-8.7L261.1 98V83.6h26.2c4.1 0 7.7-3.9 7.7-8V58.8c0-4.1-3.6-7-7.7-7H250c-4.1 0-8 2.9-8 7V98l-81.3 99.4c-3.2 3.9-2 7.6-1.4 8.9.6 1.2 2.7 4.5 7.8 4.5zM395.5 235.2h-35.1c-5.6 0-10.2 4.5-10.2 10v8h-8.5v-8c0-5.7-4.1-10-9.6-10H297c-5.7 0-10.4 4.5-10.4 10v8h-8.5v-8c0-5.7-4.1-10-9.5-10h-35.1c-5.7 0-10.5 4.6-10.5 10v8H214.6v-8c0-5.8-3.9-10-9.3-10H170c-5.8 0-10.7 4.6-10.7 10v8h-8.5v-8c0-5.9-3.8-10-9.2-10h-35.1c-5.2 0-10.8 4-10.8 10v31.1c0 6 5.6 9.8 10.8 9.8h2.9V435c0 9.7 6.4 13.2 10.7 13.2h90.2c3.2 0 4.9-1.7 5.6-2.6 1.7-2.5.9-5.1.6-6.2v-49.6c0-18.9 15.5-34.2 34.5-34.2s34.5 15.3 34.5 34.2V440c0 4 3.4 8.2 8.5 8.2h87.8c3.8 0 9.7-3 9.7-11V286.1l.1-.1h3.9c4 0 8.7-2.6 8.7-9.8v-31.1c0-7.3-4.7-9.9-8.7-9.9z"/></svg>