<svg xmlns="http://www.w3.org/2000/svg" width="500" height="500" viewBox="0 0 500 500">
  <style type="text/css">
    .st0{fill:#ffffff;}
  </style>
  <path d="M429.1,500H70.9C31.8,500,0,468.2,0,429.1V70.9C0,31.8,31.8,0,70.9,0h358.1C468.2,0,500,31.8,500,70.9v358.1
	C500,468.2,468.2,500,429.1,500z"/>
  <g>
    <path class="st0" d="M167.1,210.8h169.2c5.1,0,7-3.2,7.6-4.5s1.9-4.8-1.4-8.7L261.1,98V83.6h26.2c4.1,0,7.7-3.9,7.7-8V58.8
		c0-4.1-3.6-7-7.7-7H250c-4.1,0-8,2.9-8,7V98l-81.3,99.4c-3.2,3.9-2,7.6-1.4,8.9C159.9,207.5,162,210.8,167.1,210.8z"/>
    <path class="st0" d="M395.5,235.2h-35.1c-5.6,0-10.2,4.5-10.2,10v8h-8.5v-8c0-5.7-4.1-10-9.6-10h-35.1c-5.7,0-10.4,4.5-10.4,10v8
		h-8.4c0,0-0.1,0-0.1,0v-8c0-5.7-4.1-10-9.5-10h-35.1c-5.7,0-10.5,4.6-10.5,10v8h-8.2c-0.1,0-0.2,0-0.2,0v-8c0-5.8-3.9-10-9.3-10
		H170c-5.8,0-10.7,4.6-10.7,10l0,8h-8.1c-0.1,0-0.3,0-0.4,0v-8c0-5.9-3.8-10-9.2-10h-35.1c-5.2,0-10.8,4-10.8,10v31.1
		c0,6,5.6,9.8,10.8,9.8h2.9V435c0,9.7,6.4,13.2,10.7,13.2h90.2c3.2,0,4.9-1.7,5.6-2.6c1.7-2.5,0.9-5.1,0.6-6.2v-49.6
		c0-18.9,15.5-34.2,34.5-34.2c19,0,34.5,15.3,34.5,34.2V440c0,4,3.4,8.2,8.5,8.2h87.8c3.8,0,9.7-3,9.7-11V286.1c0,0,0,0,0.1-0.1h3.9
		c4,0,8.7-2.6,8.7-9.8v-31.1C404.2,237.8,399.5,235.2,395.5,235.2z"/>
  </g>
</svg>
